<svg width="1000" height="1000" style="overflow:hidden;background-color:transparent" xmlns="http://www.w3.org/2000/svg"><g/><g class="item" style="transform:translate(0,0) rotate(0deg);transform-origin:100px 100px;background-color:#000"><path d="M0 0h200v200H0Z" fill="transparent"/><path d="M200 0v100L0 0Z" fill="#253237"/><path d="M0 200v-50l100 50Z" fill="#f7f9f9"/></g><g class="item" style="transform:translate(0,200px) rotate(0deg);transform-origin:100px 100px;background-color:#000"><path d="M0 0h200v200H0Z" fill="transparent"/><path d="M100 100A100 100 0 0 1 0 0h100Z" fill="#6f9ceb"/><path d="M0 200a100 100 0 0 1 100-100v100Z" fill="#918ef4"/><path d="M100 100A100 100 0 0 1 200 0v100Z" fill="#6f9ceb"/><path d="M200 100a100 100 0 0 1-100 100V100Z" fill="#f7f9f9"/></g><g class="item" style="transform:translate(0,400px) rotate(180deg);transform-origin:100px 100px;background-color:#000"><path d="M0 0h200v200H0Z" fill="transparent"/><path d="M200 0 0 200V0Z" fill="#918ef4"/><path d="M200 200 0 0h200Z" fill="#18a058"/></g><g class="item" style="transform:translate(0,600px) rotate(360deg);transform-origin:100px 100px;background-color:#000"><path d="M0 0h200v200H0Z" fill="transparent"/><path d="M100 0v50A50 50 0 1 1 50 0h50Z" fill="#6f9ceb"/><path d="M100 100v50a50 50 0 1 1-50-50h50Z" fill="#918ef4"/><path d="M200 0v50a50 50 0 1 1-50-50h50Z" fill="#18a058"/><path d="M200 100v50a50 50 0 1 1-50-50h50Z" fill="#6f9ceb"/></g><g class="item" style="transform:translate(0,800px) rotate(0deg);transform-origin:100px 100px;background-color:#000"><path d="M0 0h200v200H0Z" fill="transparent"/><path d="M100 0H0v50Z" fill="#918ef4"/><path d="M200 0H100v50Z" fill="#6f9ceb"/><path d="m100 100-50 50 50 50H50L0 150l50-50Z" fill="#918ef4"/><path d="m200 100-50 50 50 50h-50l-50-50 50-50Z" fill="#18a058"/></g><g class="item" style="transform:translate(200px,0) rotate(180deg);transform-origin:100px 100px;background-color:#000"><path d="M0 0h200v200H0Z" fill="transparent"/><path d="M200 200H0A100 100 0 0 0 0 0h200Z" fill="#f7f9f9"/><path d="M133.333 133.333H66.667L100 66.667h33.333Z" fill="#918ef4"/></g><g class="item" style="transform:translate(200px,200px) rotate(270deg);transform-origin:100px 100px;background-color:#000"><path d="M0 0h200v200H0Z" fill="transparent"/><path d="M100 0v100H50L0 50 50 0Z" fill="#253237"/><path d="M100 100v100H50L0 150l50-50Z" fill="#f7f9f9"/><path d="M100 0h100v50l-50 50-50-50Z" fill="#918ef4"/><path d="M100 100h100v50l-50 50-50-50Z" fill="#f7f9f9"/></g><g class="item" style="transform:translate(200px,400px) rotate(180deg);transform-origin:100px 100px;background-color:#000"><path d="M0 0h200v200H0Z" fill="transparent"/><path d="M0 0h200v200H0Z" fill="#253237"/><path d="M66.667 133.333V66.667L133.333 100v33.333Z" fill="#18a058"/></g><g class="item" style="transform:translate(200px,600px) rotate(360deg);transform-origin:100px 100px;background-color:#000"><path d="M0 0h200v200H0Z" fill="transparent"/><path d="M200 0v200L0 100V0Z" fill="#918ef4"/><path d="M66.667 100v33.333L0 100V66.667Z" fill="#6f9ceb"/></g><g class="item" style="transform:translate(200px,800px) rotate(360deg);transform-origin:100px 100px;background-color:#000"><path d="M0 0h200v200H0Z" fill="transparent"/><path d="M200 200H100L0 0h100Z" fill="#253237"/><path d="M66.667 66.667H100a33.333 33.333 0 0 1 0 66.666H66.667Z" fill="#6f9ceb"/></g><g class="item" style="transform:translate(400px,0) rotate(270deg);transform-origin:100px 100px;background-color:#000"><path d="M0 0h200v200H0Z" fill="transparent"/><path d="M0 200V0l200 100v100Z" fill="#253237"/><path d="M66.667 133.333V66.667L133.333 100v33.333Z" fill="#6f9ceb"/></g><g class="item" style="transform:translate(400px,200px) rotate(360deg);transform-origin:100px 100px;background-color:#000"><path d="M0 0h200v200H0Z" fill="transparent"/><path d="M100 0a100 100 0 0 1 0 200V100Z" fill="#918ef4"/><path d="M0 133.333 33.333 100 0 66.667h33.333L66.667 100l-33.334 33.333Z" fill="#6f9ceb"/></g><g class="item" style="transform:translate(400px,400px) rotate(360deg);transform-origin:100px 100px;background-color:#000"><path d="M0 0h200v200H0Z" fill="transparent"/><path d="M100 100H0L100 0l100 100Z" fill="#f7f9f9"/><path d="M100 100H0L100 0l100 100Z" fill="#6f9ceb"/></g><g class="item" style="transform:translate(400px,600px) rotate(360deg);transform-origin:100px 100px;background-color:#000"><path d="M0 0h200v200H0Z" fill="transparent"/><path d="M100 100H0V50L50 0l50 50Z" fill="#253237"/><path d="M100 200H0v-50l50-50 50 50Z" fill="#18a058"/><path d="M200 0v100h-50l-50-50 50-50Zm0 200H100v-50l50-50 50 50Z" fill="#f7f9f9"/></g><g class="item" style="transform:translate(400px,800px) rotate(270deg);transform-origin:100px 100px;background-color:#000"><path d="M0 0h200v200H0Z" fill="transparent"/><path d="M200 0 100 200 0 0Z" fill="#6f9ceb"/><path d="M66.667 133.333h66.666V200H66.667Z" fill="#18a058"/></g><g class="item" style="transform:translate(600px,0) rotate(360deg);transform-origin:100px 100px;background-color:#000"><path d="M0 0h200v200H0Z" fill="transparent"/><path d="M50 100H0V0h50Zm50 50v50H0v-50ZM150 0h50v100h-50Zm50 150v50H100v-50Z" fill="#f7f9f9"/></g><g class="item" style="transform:translate(600px,200px) rotate(360deg);transform-origin:100px 100px;background-color:#000"><path d="M0 0h200v200H0Z" fill="transparent"/><path d="m0 200 100-100L0 0h100l100 100-100 100Z" fill="#f7f9f9"/><path d="M66.667 66.667H100v66.666H66.667Z" fill="#f7f9f9"/></g><g class="item" style="transform:translate(600px,400px) rotate(360deg);transform-origin:100px 100px;background-color:#000"><path d="M0 0h200v200H0Z" fill="transparent"/><path d="m0 0 100 100L200 0v100L100 200 0 100Z" fill="#6f9ceb"/><path d="M66.667 100V66.667h66.666V100Z" fill="#918ef4"/></g><g class="item" style="transform:translate(600px,600px) rotate(90deg);transform-origin:100px 100px;background-color:#000"><path d="M0 0h200v200H0Z" fill="transparent"/><path d="M50 0h50L50 100H0Z" fill="#918ef4"/><path d="M50 100h50L50 200H0Z" fill="#f7f9f9"/><path d="M150 100h-50L150 0h50Z" fill="#18a058"/><path d="M150 200h-50l50-100h50Z" fill="#f7f9f9"/></g><g class="item" style="transform:translate(600px,800px) rotate(180deg);transform-origin:100px 100px;background-color:#000"><path d="M0 0h200v200H0Z" fill="transparent"/><path d="M200 100a100 100 0 1 0 0 .02Z" fill="#f7f9f9"/><path d="M66.667 66.667h66.666L100 133.333H66.667Z" fill="#918ef4"/></g><g class="item" style="transform:translate(800px,0) rotate(180deg);transform-origin:100px 100px;background-color:#000"><path d="M0 0h200v200H0Z" fill="transparent"/><path d="M0 0v100l50-50 50 50V0Z" fill="#253237"/><path d="M0 200h100l-50-50 50-50H0Zm200-100V0l-50 50-50-50v100Z" fill="#918ef4"/><path d="M100 100v100l50-50 50 50V100Z" fill="#6f9ceb"/></g><g class="item" style="transform:translate(800px,200px) rotate(90deg);transform-origin:100px 100px;background-color:#000"><path d="M0 0h200v200H0Z" fill="transparent"/><path d="M100 0A50 50 0 0 1 0 0h50Z" fill="#6f9ceb"/><path d="M0 100a50 50 0 0 1 0 100v-50Z" fill="#18a058"/><path d="M200 0a50 50 0 0 1-100 0h50ZM100 100a50 50 0 0 1 0 100v-50Z" fill="#f7f9f9"/></g><g class="item" style="transform:translate(800px,400px) rotate(0deg);transform-origin:100px 100px;background-color:#000"><path d="M0 0h200v200H0Z" fill="transparent"/><path d="M0 100a100 100 0 0 1 200 0H100Z" fill="#918ef4"/><path d="M66.667 33.333V0h66.666v33.333Z" fill="#18a058"/></g><g class="item" style="transform:translate(800px,600px) rotate(180deg);transform-origin:100px 100px;background-color:#000"><path d="M0 0h200v200H0Z" fill="transparent"/><path d="M100 0A100 100 0 1 1 0 100h100Z" fill="#f7f9f9"/><path d="M100 50A50 50 0 1 1 50 0v50Z" fill="#918ef4"/></g><g class="item" style="transform:translate(800px,800px) rotate(180deg);transform-origin:100px 100px;background-color:#000"><path d="M0 0h200v200H0Z" fill="transparent"/><path d="M100 100A100 100 0 0 1 0 0v100Z" fill="#253237"/><path d="M0 200a100 100 0 0 1 100-100H0Zm200-100A100 100 0 0 1 100 0v100Z" fill="#f7f9f9"/><path d="M200 200a100 100 0 0 1-100-100v100Z" fill="#253237"/></g></svg>