<svg width="1000" height="1000" style="overflow:hidden;background-color:transparent" xmlns="http://www.w3.org/2000/svg"><g/><g class="item" style="transform:translate(0,0) rotate(270deg);transform-origin:125px 125px;background-color:#000"><path d="M0 0h250v250H0Z" fill="transparent"/><path d="M125 125H0L125 0l125 125Z" fill="#63e2b7"/><path d="M125 125V0l125 125-125 125Z" fill="#0a090c"/></g><g class="item" style="transform:translate(0,250px) rotate(90deg);transform-origin:125px 125px;background-color:#000"><path d="M0 0h250v250H0Z" fill="transparent"/><path d="M125 0a125 125 0 0 1 0 250V125Z" fill="#63e2b7"/><path d="M0 125a125 125 0 0 1 250 0H125Z" fill="#63e2b7"/></g><g class="item" style="transform:translate(0,500px) rotate(90deg);transform-origin:125px 125px;background-color:#000"><path d="M0 0h250v250H0Z" fill="transparent"/><path d="M0 0h250v125H125v125H0Z" fill="#07393c"/><path d="M250 0v250H125V125H0V0Z" fill="#63e2b7"/></g><g class="item" style="transform:translate(0,750px) rotate(360deg);transform-origin:125px 125px;background-color:#000"><path d="M0 0h250v250H0Z" fill="transparent"/><path d="M0 0v125l62.5-62.5L125 125V0Z" fill="#63e2b7"/><path d="M250 125V0l-62.5 62.5L125 0v125ZM0 250a62.5 62.5 0 0 1 125 0H62.5Z" fill="#2c666e"/><path d="M125 250a62.5 62.5 0 0 1 125 0h-62.5Z" fill="#f46197"/></g><g class="item" style="transform:translate(250px,0) rotate(90deg);transform-origin:125px 125px;background-color:#000"><path d="M0 0h250v250H0Z" fill="transparent"/><path d="m187.5 125 62.5 62.5-62.5 62.5-62.5-62.5Z" fill="#2c666e"/><path d="M0 0h62.5A62.5 62.5 0 1 1 0 62.5V0Z" fill="#63e2b7"/><path d="M0 125h62.5A62.5 62.5 0 1 1 0 187.5V125Z" fill="#07393c"/><path d="M250 0v62.5A62.5 62.5 0 1 1 187.5 0H250Z" fill="#0a090c"/></g><g class="item" style="transform:translate(250px,250px) rotate(0deg);transform-origin:125px 125px;background-color:#000"><path d="M0 0h250v250H0Z" fill="transparent"/><path d="M125 250a125 125 0 0 1 0-250v125ZM250 83.333 208.333 125 250 166.667h-41.667L166.667 125l41.666-41.667Z" fill="#07393c"/></g><g class="item" style="transform:translate(250px,500px) rotate(90deg);transform-origin:125px 125px;background-color:#000"><path d="M0 0h250v250H0Z" fill="transparent"/><path d="M250 250H125L0 0h125Z" fill="#07393c"/><path d="M83.333 83.333H125a41.667 41.667 0 0 1 0 83.334H83.333Z" fill="#f46197"/></g><g class="item" style="transform:translate(250px,750px) rotate(270deg);transform-origin:125px 125px;background-color:#000"><path d="M0 0h250v250H0Z" fill="transparent"/><path d="M250 125a125 125 0 0 1-250 0h125Z" fill="#63e2b7"/><path d="M166.667 125a41.667 41.667 0 0 1-83.334 0H125Z" fill="#2c666e"/></g><g class="item" style="transform:translate(500px,0) rotate(0deg);transform-origin:125px 125px;background-color:#000"><path d="M0 0h250v250H0Z" fill="transparent"/><path d="M0 125V62.5A62.5 62.5 0 1 1 62.5 125H0Zm125 0v62.5A62.5 62.5 0 1 1 62.5 125H125Z" fill="#0a090c"/><path d="M250 0v62.5A62.5 62.5 0 1 1 187.5 0H250Z" fill="#f46197"/><path d="M125 250v-62.5a62.5 62.5 0 1 1 62.5 62.5H125Z" fill="#63e2b7"/></g><g class="item" style="transform:translate(500px,250px) rotate(90deg);transform-origin:125px 125px;background-color:#000"><path d="M0 0h250v250H0Z" fill="transparent"/><path d="M250 250 0 125 250 0Z" fill="#2c666e"/><path d="M0 250 250 0v250Z" fill="#0a090c"/></g><g class="item" style="transform:translate(500px,500px) rotate(270deg);transform-origin:125px 125px;background-color:#000"><path d="M0 0h250v250H0Z" fill="transparent"/><path d="M125 125H62.5a62.5 62.5 0 0 1 0-125H125Z" fill="#2c666e"/><path d="M250 250h-62.5a62.5 62.5 0 0 1 0-125H250Z" fill="#07393c"/><path d="M250 125A125 125 0 0 1 125 0h125Z" fill="#f46197"/><path d="M0 250v-62.5a62.5 62.5 0 0 1 125 0V250Z" fill="#2c666e"/></g><g class="item" style="transform:translate(500px,750px) rotate(90deg);transform-origin:125px 125px;background-color:#000"><path d="M0 0h250v250H0Z" fill="transparent"/><path d="M0 125a125 125 0 0 1 125 125V125Z" fill="#07393c"/><path d="M125 125a125 125 0 0 1 125 125V125Z" fill="#2c666e"/><path d="M125 0v62.5a62.5 62.5 0 0 0-125 0V0Zm125 0v62.5a62.5 62.5 0 0 0-125 0V0Z" fill="#63e2b7"/></g><g class="item" style="transform:translate(750px,0) rotate(90deg);transform-origin:125px 125px;background-color:#000"><path d="M0 0h250v250H0Z" fill="transparent"/><path d="M0 0a62.5 62.5 0 0 1 0 125V62.5Z" fill="#07393c"/><path d="M0 125a62.5 62.5 0 0 1 0 125v-62.5ZM250 0v125L125 62.5V0Z" fill="#0a090c"/><path d="M250 125v125l-125-62.5V125Z" fill="#07393c"/></g><g class="item" style="transform:translate(750px,250px) rotate(90deg);transform-origin:125px 125px;background-color:#000"><path d="M0 0h250v250H0Z" fill="transparent"/><path d="M125 0a125 125 0 0 1 125 125H125Z" fill="#0a090c"/><path d="M125 250A125 125 0 0 1 0 125h125Z" fill="#63e2b7"/><path d="M250 250a125 125 0 0 1-125-125v125Z" fill="#0a090c"/><path d="M0 125A125 125 0 0 1 125 0v125Z" fill="#f46197"/></g><g class="item" style="transform:translate(750px,500px) rotate(360deg);transform-origin:125px 125px;background-color:#000"><path d="M0 0h250v250H0Z" fill="transparent"/><path d="M250 0v250a125 125 0 0 0-250 0V0Z" fill="#f46197"/><path d="M166.667 166.667v41.666A41.667 41.667 0 1 1 125 166.667h41.667Z" fill="#f46197"/></g><g class="item" style="transform:translate(750px,750px) rotate(180deg);transform-origin:125px 125px;background-color:#000"><path d="M0 0h250v250H0Z" fill="transparent"/><path d="M0 125V62.5h125V125Z" fill="#63e2b7"/><path d="M0 250v-62.5h125V250Z" fill="#07393c"/><path d="M250 0v62.5H125V0Z" fill="#63e2b7"/><path d="M250 125v62.5H125V125Z" fill="#2c666e"/></g></svg>