<svg xmlns="http://www.w3.org/2000/svg" width="144" viewBox="0 0 108 108" height="144" version="1.0"><defs><clipPath id="a"><path d="M16.2 0h75.6c4.298 0 8.419 1.707 11.454 4.746A16.2 16.2 0 0 1 108 16.2v75.602c0 8.945-7.254 16.199-16.2 16.199H16.2a16.2 16.2 0 0 1-11.454-4.746A16.2 16.2 0 0 1 0 91.8V16.199C0 7.254 7.254 0 16.2 0m0 0"/></clipPath><clipPath id="c"><path d="M13.328 13.328H94v81H13.328Zm0 0"/></clipPath><linearGradient x1="0" gradientTransform="scale(.42188)" y1="0" x2="256" gradientUnits="userSpaceOnUse" y2="256" id="b"><stop stop-color="#8C52FF" offset="0"/><stop stop-color="#8B53FE" offset=".004"/><stop stop-color="#8B53FE" offset=".008"/><stop stop-color="#8A53FD" offset=".012"/><stop stop-color="#8A54FD" offset=".016"/><stop stop-color="#8954FC" offset=".02"/><stop stop-color="#8955FB" offset=".023"/><stop stop-color="#8855FB" offset=".027"/><stop stop-color="#8856FA" offset=".031"/><stop stop-color="#8756FA" offset=".035"/><stop stop-color="#8756F9" offset=".039"/><stop stop-color="#8657F8" offset=".043"/><stop stop-color="#8557F8" offset=".047"/><stop stop-color="#8558F7" offset=".051"/><stop stop-color="#8458F6" offset=".055"/><stop stop-color="#8458F6" offset=".059"/><stop stop-color="#8359F5" offset=".063"/><stop stop-color="#8359F5" offset=".066"/><stop stop-color="#825AF4" offset=".07"/><stop stop-color="#825AF3" offset=".074"/><stop stop-color="#815BF3" offset=".078"/><stop stop-color="#815BF2" offset=".082"/><stop stop-color="#805BF2" offset=".086"/><stop stop-color="#7F5CF1" offset=".09"/><stop stop-color="#7F5CF0" offset=".094"/><stop stop-color="#7E5DF0" offset=".098"/><stop stop-color="#7E5DEF" offset=".102"/><stop stop-color="#7D5EEF" offset=".105"/><stop stop-color="#7D5EEE" offset=".109"/><stop stop-color="#7C5EED" offset=".113"/><stop stop-color="#7C5FED" offset=".117"/><stop stop-color="#7B5FEC" offset=".121"/><stop stop-color="#7A60EB" offset=".125"/><stop stop-color="#7A60EB" offset=".129"/><stop stop-color="#7961EA" offset=".133"/><stop stop-color="#7961EA" offset=".137"/><stop stop-color="#7861E9" offset=".141"/><stop stop-color="#7862E8" offset=".145"/><stop stop-color="#7762E8" offset=".148"/><stop stop-color="#7763E7" offset=".152"/><stop stop-color="#7663E7" offset=".156"/><stop stop-color="#7664E6" offset=".16"/><stop stop-color="#7564E5" offset=".164"/><stop stop-color="#7464E5" offset=".168"/><stop stop-color="#7465E4" offset=".172"/><stop stop-color="#7365E4" offset=".176"/><stop stop-color="#7366E3" offset=".18"/><stop stop-color="#7266E2" offset=".184"/><stop stop-color="#7267E2" offset=".188"/><stop stop-color="#7167E1" offset=".191"/><stop stop-color="#7167E1" offset=".195"/><stop stop-color="#7068E0" offset=".199"/><stop stop-color="#7068DF" offset=".203"/><stop stop-color="#6F69DF" offset=".207"/><stop stop-color="#6E69DE" offset=".211"/><stop stop-color="#6E6ADD" offset=".215"/><stop stop-color="#6D6ADD" offset=".219"/><stop stop-color="#6D6ADC" offset=".223"/><stop stop-color="#6C6BDC" offset=".227"/><stop stop-color="#6C6BDB" offset=".23"/><stop stop-color="#6B6CDA" offset=".234"/><stop stop-color="#6B6CDA" offset=".238"/><stop stop-color="#6A6CD9" offset=".242"/><stop stop-color="#6A6DD9" offset=".246"/><stop stop-color="#696DD8" offset=".25"/><stop stop-color="#686ED7" offset=".254"/><stop stop-color="#686ED7" offset=".258"/><stop stop-color="#676FD6" offset=".262"/><stop stop-color="#676FD6" offset=".266"/><stop stop-color="#666FD5" offset=".27"/><stop stop-color="#6670D4" offset=".273"/><stop stop-color="#6570D4" offset=".277"/><stop stop-color="#6571D3" offset=".281"/><stop stop-color="#6471D2" offset=".285"/><stop stop-color="#6472D2" offset=".289"/><stop stop-color="#6372D1" offset=".293"/><stop stop-color="#6272D1" offset=".297"/><stop stop-color="#6273D0" offset=".301"/><stop stop-color="#6173CF" offset=".305"/><stop stop-color="#6174CF" offset=".309"/><stop stop-color="#6074CE" offset=".313"/><stop stop-color="#6075CE" offset=".316"/><stop stop-color="#5F75CD" offset=".32"/><stop stop-color="#5F75CC" offset=".324"/><stop stop-color="#5E76CC" offset=".328"/><stop stop-color="#5E76CB" offset=".332"/><stop stop-color="#5D77CB" offset=".336"/><stop stop-color="#5C77CA" offset=".34"/><stop stop-color="#5C78C9" offset=".344"/><stop stop-color="#5B78C9" offset=".348"/><stop stop-color="#5B78C8" offset=".352"/><stop stop-color="#5A79C8" offset=".355"/><stop stop-color="#5A79C7" offset=".359"/><stop stop-color="#597AC6" offset=".363"/><stop stop-color="#597AC6" offset=".367"/><stop stop-color="#587BC5" offset=".371"/><stop stop-color="#577BC4" offset=".375"/><stop stop-color="#577BC4" offset=".379"/><stop stop-color="#567CC3" offset=".383"/><stop stop-color="#567CC3" offset=".387"/><stop stop-color="#557DC2" offset=".391"/><stop stop-color="#557DC1" offset=".395"/><stop stop-color="#547DC1" offset=".398"/><stop stop-color="#547EC0" offset=".402"/><stop stop-color="#537EC0" offset=".406"/><stop stop-color="#537FBF" offset=".41"/><stop stop-color="#527FBE" offset=".414"/><stop stop-color="#5180BE" offset=".418"/><stop stop-color="#5180BD" offset=".422"/><stop stop-color="#5080BD" offset=".426"/><stop stop-color="#5081BC" offset=".43"/><stop stop-color="#4F81BB" offset=".434"/><stop stop-color="#4F82BB" offset=".438"/><stop stop-color="#4E82BA" offset=".441"/><stop stop-color="#4E83BA" offset=".445"/><stop stop-color="#4D83B9" offset=".449"/><stop stop-color="#4D83B8" offset=".453"/><stop stop-color="#4C84B8" offset=".457"/><stop stop-color="#4B84B7" offset=".461"/><stop stop-color="#4B85B6" offset=".465"/><stop stop-color="#4A85B6" offset=".469"/><stop stop-color="#4A86B5" offset=".473"/><stop stop-color="#4986B5" offset=".477"/><stop stop-color="#4986B4" offset=".48"/><stop stop-color="#4887B3" offset=".484"/><stop stop-color="#4887B3" offset=".488"/><stop stop-color="#4788B2" offset=".492"/><stop stop-color="#4788B2" offset=".496"/><stop stop-color="#4689B1" offset=".5"/><stop stop-color="#4589B0" offset=".504"/><stop stop-color="#4589B0" offset=".508"/><stop stop-color="#448AAF" offset=".512"/><stop stop-color="#448AAF" offset=".516"/><stop stop-color="#438BAE" offset=".52"/><stop stop-color="#438BAD" offset=".523"/><stop stop-color="#428CAD" offset=".527"/><stop stop-color="#428CAC" offset=".531"/><stop stop-color="#418CAB" offset=".535"/><stop stop-color="#418DAB" offset=".539"/><stop stop-color="#408DAA" offset=".543"/><stop stop-color="#3F8EAA" offset=".547"/><stop stop-color="#3F8EA9" offset=".551"/><stop stop-color="#3E8FA8" offset=".555"/><stop stop-color="#3E8FA8" offset=".559"/><stop stop-color="#3D8FA7" offset=".563"/><stop stop-color="#3D90A7" offset=".566"/><stop stop-color="#3C90A6" offset=".57"/><stop stop-color="#3C91A5" offset=".574"/><stop stop-color="#3B91A5" offset=".578"/><stop stop-color="#3B91A4" offset=".582"/><stop stop-color="#3A92A4" offset=".586"/><stop stop-color="#3992A3" offset=".59"/><stop stop-color="#3993A2" offset=".594"/><stop stop-color="#3893A2" offset=".598"/><stop stop-color="#3894A1" offset=".602"/><stop stop-color="#3794A1" offset=".605"/><stop stop-color="#3794A0" offset=".609"/><stop stop-color="#36959F" offset=".613"/><stop stop-color="#36959F" offset=".617"/><stop stop-color="#35969E" offset=".621"/><stop stop-color="#34969D" offset=".625"/><stop stop-color="#34979D" offset=".629"/><stop stop-color="#33979C" offset=".633"/><stop stop-color="#33979C" offset=".637"/><stop stop-color="#32989B" offset=".641"/><stop stop-color="#32989A" offset=".645"/><stop stop-color="#31999A" offset=".648"/><stop stop-color="#319999" offset=".652"/><stop stop-color="#309A99" offset=".656"/><stop stop-color="#309A98" offset=".66"/><stop stop-color="#2F9A97" offset=".664"/><stop stop-color="#2E9B97" offset=".668"/><stop stop-color="#2E9B96" offset=".672"/><stop stop-color="#2D9C96" offset=".676"/><stop stop-color="#2D9C95" offset=".68"/><stop stop-color="#2C9D94" offset=".684"/><stop stop-color="#2C9D94" offset=".688"/><stop stop-color="#2B9D93" offset=".691"/><stop stop-color="#2B9E92" offset=".695"/><stop stop-color="#2A9E92" offset=".699"/><stop stop-color="#2A9F91" offset=".703"/><stop stop-color="#299F91" offset=".707"/><stop stop-color="#28A090" offset=".711"/><stop stop-color="#28A08F" offset=".715"/><stop stop-color="#27A08F" offset=".719"/><stop stop-color="#27A18E" offset=".723"/><stop stop-color="#26A18E" offset=".727"/><stop stop-color="#26A28D" offset=".73"/><stop stop-color="#25A28C" offset=".734"/><stop stop-color="#25A28C" offset=".738"/><stop stop-color="#24A38B" offset=".742"/><stop stop-color="#24A38B" offset=".746"/><stop stop-color="#23A48A" offset=".75"/><stop stop-color="#22A489" offset=".754"/><stop stop-color="#22A589" offset=".758"/><stop stop-color="#21A588" offset=".762"/><stop stop-color="#21A588" offset=".766"/><stop stop-color="#20A687" offset=".77"/><stop stop-color="#20A686" offset=".773"/><stop stop-color="#1FA786" offset=".777"/><stop stop-color="#1FA785" offset=".781"/><stop stop-color="#1EA884" offset=".785"/><stop stop-color="#1EA884" offset=".789"/><stop stop-color="#1DA883" offset=".793"/><stop stop-color="#1CA983" offset=".797"/><stop stop-color="#1CA982" offset=".801"/><stop stop-color="#1BAA81" offset=".805"/><stop stop-color="#1BAA81" offset=".809"/><stop stop-color="#1AAB80" offset=".813"/><stop stop-color="#1AAB80" offset=".816"/><stop stop-color="#19AB7F" offset=".82"/><stop stop-color="#19AC7E" offset=".824"/><stop stop-color="#18AC7E" offset=".828"/><stop stop-color="#18AD7D" offset=".832"/><stop stop-color="#17AD7D" offset=".836"/><stop stop-color="#16AE7C" offset=".84"/><stop stop-color="#16AE7B" offset=".844"/><stop stop-color="#15AE7B" offset=".848"/><stop stop-color="#15AF7A" offset=".852"/><stop stop-color="#14AF79" offset=".855"/><stop stop-color="#14B079" offset=".859"/><stop stop-color="#13B078" offset=".863"/><stop stop-color="#13B178" offset=".867"/><stop stop-color="#12B177" offset=".871"/><stop stop-color="#11B176" offset=".875"/><stop stop-color="#11B276" offset=".879"/><stop stop-color="#10B275" offset=".883"/><stop stop-color="#10B375" offset=".887"/><stop stop-color="#0FB374" offset=".891"/><stop stop-color="#0FB473" offset=".895"/><stop stop-color="#0EB473" offset=".898"/><stop stop-color="#0EB472" offset=".902"/><stop stop-color="#0DB572" offset=".906"/><stop stop-color="#0DB571" offset=".91"/><stop stop-color="#0CB670" offset=".914"/><stop stop-color="#0BB670" offset=".918"/><stop stop-color="#0BB66F" offset=".922"/><stop stop-color="#0AB76F" offset=".926"/><stop stop-color="#0AB76E" offset=".93"/><stop stop-color="#09B86D" offset=".934"/><stop stop-color="#09B86D" offset=".938"/><stop stop-color="#08B96C" offset=".941"/><stop stop-color="#08B96B" offset=".945"/><stop stop-color="#07B96B" offset=".949"/><stop stop-color="#07BA6A" offset=".953"/><stop stop-color="#06BA6A" offset=".957"/><stop stop-color="#05BB69" offset=".961"/><stop stop-color="#05BB68" offset=".965"/><stop stop-color="#04BC68" offset=".969"/><stop stop-color="#04BC67" offset=".973"/><stop stop-color="#03BC67" offset=".977"/><stop stop-color="#03BD66" offset=".98"/><stop stop-color="#02BD65" offset=".984"/><stop stop-color="#02BE65" offset=".988"/><stop stop-color="#01BE64" offset=".992"/><stop stop-color="#01BF64" offset=".996"/><stop stop-color="#00BF63" offset="1"/></linearGradient></defs><g clip-path="url(#a)"><path fill="url(#b)" d="M-10.8-10.8h129.6v129.6H-10.8z"/></g><g clip-path="url(#c)"><path fill="#fff" d="M88.52 46.477a20.2 20.2 0 0 0-1.735-16.575 20.405 20.405 0 0 0-21.98-9.789 20.18 20.18 0 0 0-15.223-6.785 20.4 20.4 0 0 0-19.465 14.129 20.18 20.18 0 0 0-13.496 9.785 20.42 20.42 0 0 0 2.512 23.934 20.2 20.2 0 0 0 1.734 16.574 20.405 20.405 0 0 0 21.98 9.79 20.18 20.18 0 0 0 15.223 6.784 20.41 20.41 0 0 0 19.473-14.14 20.2 20.2 0 0 0 13.496-9.79 20.42 20.42 0 0 0-2.516-23.921ZM58.074 89.03a15.13 15.13 0 0 1-9.719-3.515 8 8 0 0 0 .48-.27l16.13-9.316a2.61 2.61 0 0 0 1.324-2.293V50.898l6.816 3.934c.075.035.122.11.133.188v18.832c-.011 8.37-6.793 15.16-15.164 15.18m-32.613-13.93a15.1 15.1 0 0 1-1.809-10.171c.118.07.328.199.477.289l16.129 9.312c.82.48 1.832.48 2.652 0l19.688-11.37v7.874a.24.24 0 0 1-.094.207l-16.305 9.414c-7.261 4.184-16.535 1.696-20.734-5.554Zm-4.246-35.206a15.14 15.14 0 0 1 7.902-6.657c0 .14-.008.387-.008.559V52.43c-.007.945.5 1.824 1.325 2.293L50.12 66.09l-6.816 3.937a.25.25 0 0 1-.23.02L26.77 60.625c-7.247-4.195-9.735-13.469-5.555-20.727Zm56.008 13.03L57.53 41.56l6.817-3.934a.24.24 0 0 1 .23-.023l16.309 9.414c7.258 4.195 9.746 13.484 5.55 20.742a15.17 15.17 0 0 1-7.894 6.652V55.223a2.62 2.62 0 0 0-1.316-2.297Zm6.785-10.21c-.121-.07-.332-.2-.48-.285l-16.13-9.313a2.61 2.61 0 0 0-2.648 0L45.059 44.484v-7.87a.26.26 0 0 1 .093-.212l16.305-9.406c7.262-4.187 16.547-1.695 20.734 5.57A15.16 15.16 0 0 1 84 42.715Zm-42.656 14.03-6.82-3.934a.24.24 0 0 1-.13-.187V33.793c.004-8.383 6.805-15.176 15.188-15.172 3.547 0 6.98 1.246 9.707 3.516a9 9 0 0 0-.48.27l-16.13 9.316a2.61 2.61 0 0 0-1.324 2.293l-.011 22.726Zm3.703-7.98 8.773-5.067 8.77 5.063V58.89l-8.77 5.062-8.773-5.062Zm0 0"/></g></svg>